HIERARCHY
ROOT root
{
	OFFSET	0	13.1	24.9
	CHANNELS 6  Xposition Yposition Zposition Xrotation Yrotation Zrotation
	JOINT spine_1
	{
		OFFSET	0	9.99999	0
		CHANNELS 3  Xrotation Yrotation Zrotation
		JOINT spine_2
		{
			OFFSET	0	112	-10
			CHANNELS 3  Xrotation Yrotation Zrotation
			JOINT spine_3
			{
				OFFSET	0	206.5	19.3
				CHANNELS 3  Xrotation Yrotation Zrotation
				JOINT spine_4
				{
					OFFSET	0	110.4	14.6
					CHANNELS 3  Xrotation Yrotation Zrotation
					JOINT neck_1
					{
						OFFSET	0	71.8	-50.3
						CHANNELS 3  Xrotation Yrotation Zrotation
						JOINT neck_2
						{
							OFFSET	0	86.2	-25.8
							CHANNELS 3  Xrotation Yrotation Zrotation
							JOINT head_ee
							{
								OFFSET	0	179.8	-8.7
								CHANNELS 3  Xrotation Yrotation Zrotation
								End Site
								{
									OFFSET	1	0	0
								}
							}
						}
					}
					JOINT left_clavicle
					{
						OFFSET	-43.2	22.4	-70.8
						CHANNELS 3  Xrotation Yrotation Zrotation
						JOINT left_shoulder
						{
							OFFSET	-93.9	-5.79999	48.7
							CHANNELS 3  Xrotation Yrotation Zrotation
							JOINT left_elbow
							{
								OFFSET	-291.4	-30.8	15.2
								CHANNELS 3  Xrotation Yrotation Zrotation
								JOINT left_lowarm_twist
								{
									OFFSET	-110.7	-3.89999	13.6
									CHANNELS 3  Xrotation Yrotation Zrotation
									JOINT left_hand
									{
										OFFSET	-110.7	-3.89999	13.6
										CHANNELS 3  Xrotation Yrotation Zrotation
										JOINT left_ee
										{
											OFFSET	-80.8	-5.10001	12.1
											CHANNELS 3  Xrotation Yrotation Zrotation
											End Site
											{
												OFFSET	1	0	0
											}
										}
									}
								}
							}
						}
					}
					JOINT right_clavicle
					{
						OFFSET	43.2	22.4	-70.8
						CHANNELS 3  Xrotation Yrotation Zrotation
						JOINT right_shoulder
						{
							OFFSET	93.9	-5.79999	48.7
							CHANNELS 3  Xrotation Yrotation Zrotation
							JOINT right_elbow
							{
								OFFSET	291.4	-30.8	15.2
								CHANNELS 3  Xrotation Yrotation Zrotation
								JOINT right_lowarm_twist
								{
									OFFSET	110.7	-3.89999	13.6
									CHANNELS 3  Xrotation Yrotation Zrotation
									JOINT right_hand
									{
										OFFSET	110.7	-3.89999	13.6
										CHANNELS 3  Xrotation Yrotation Zrotation
										JOINT right_ee
										{
											OFFSET	80.8	-5.10001	12.1
											CHANNELS 3  Xrotation Yrotation Zrotation
											End Site
											{
												OFFSET	1	0	0
											}
										}
									}
								}
							}
						}
					}
				}
			}
		}
	}
	JOINT left_hip
	{
		OFFSET	-82.8	-127.5	0.300001
		CHANNELS 3  Xrotation Yrotation Zrotation
		JOINT left_knee
		{
			OFFSET	-28.2	-396.7	2.2
			CHANNELS 3  Xrotation Yrotation Zrotation
			JOINT left_ankle
			{
				OFFSET	-11.7	-411.3	35.4
				CHANNELS 3  Xrotation Yrotation Zrotation
				JOINT left_toes
				{
					OFFSET	0	-60	-88.6
					CHANNELS 3  Xrotation Yrotation Zrotation
					JOINT left_foot_ee
					{
						OFFSET	-22.5	-16.5	-42.2
						CHANNELS 3  Xrotation Yrotation Zrotation
						End Site
						{
							OFFSET	1	0	0
						}
					}
				}
			}
		}
	}
	JOINT right_hip
	{
		OFFSET	82.8	-127.5	0.300001
		CHANNELS 3  Xrotation Yrotation Zrotation
		JOINT right_knee
		{
			OFFSET	28.2	-396.7	2.2
			CHANNELS 3  Xrotation Yrotation Zrotation
			JOINT right_ankle
			{
				OFFSET	11.7	-411.3	35.4
				CHANNELS 3  Xrotation Yrotation Zrotation
				JOINT right_toes
				{
					OFFSET	0	-60	-88.6
					CHANNELS 3  Xrotation Yrotation Zrotation
					JOINT right_foot_ee
					{
						OFFSET	22.5	-16.5	-42.2
						CHANNELS 3  Xrotation Yrotation Zrotation
						End Site
						{
							OFFSET	1	0	0
						}
					}
				}
			}
		}
	}
}
MOTION
Frames: 8
Frame Time: 0.02
2571.25 701.059 -1487.7 -2.3761 58.6054 4.69773 0.676721 0.140571 1.34485 0.677726 0.0547176 1.35107 0.679325 -0.214688 1.33503 0.676837 -0.00117086 1.35218 -10.7739 15.4575 -2.61975 -11.1829 30.9224 1.70526 -0.0 0.0 -0.0 -0.652301 8.36196 -0.157018 1.8073 -4.23843 53.9549 2.48501 -50.9034 1.18286 -39.3441 -2.88168 4.01315 -3.5108 12.2635 -17.4156 -0.0 0.0 -0.0 8.18453 25.4679 -14.8866 -19.2009 27.0421 -69.2244 0.832914 22.4209 -0.165082 3.61372 -0.113233 0.447613 5.40325 -31.4451 -46.2304 0.0 0.0 0.0 -24.9071 14.0643 10.1494 1.07674 -0.045834 -0.15887 40.729 6.86352 -4.92325 -37.3534 0.0 0.0 -0.0 0.0 -0.0 27.1688 6.51133 -19.838 4.86312 0.23059 0.710267 -4.48139 -4.11435 -0.664148 34.0708 -0.0 -0.0 0.0 0.0 0.0 
2547.19 700.51 -1486.92 -3.00687 57.8491 5.40259 0.738062 0.31346 1.22856 0.738872 0.234654 1.24601 0.744308 -0.0159848 1.26781 0.742112 0.184427 1.25443 -9.23624 15.6987 -3.81244 -9.45412 32.075 0.130973 -0.0 0.0 -0.0 -0.446993 9.50321 0.350493 0.597822 -3.70537 54.9141 2.43104 -50.2866 1.14116 -40.7411 -3.03032 4.11337 -3.43459 11.283 -17.4643 -0.0 0.0 -0.0 8.10631 24.6425 -14.7962 -18.5364 26.4976 -67.9733 0.894444 23.897 -0.189283 4.9224 -0.14724 0.611322 5.42151 -30.5922 -46.4327 0.0 0.0 0.0 -24.6787 15.4285 10.624 -1.00261 0.0399827 0.148666 39.2238 6.83953 -4.79227 -38.1118 0.0 0.0 -0.0 0.0 -0.0 26.9045 6.17533 -19.6671 3.53892 0.161827 0.5188 -2.71003 -5.10184 -0.399709 35.7459 -0.0 -0.0 0.0 0.0 0.0 
2521.45 698.395 -1487.43 -3.4691 57.1689 5.04613 0.769309 0.201033 1.31528 0.770264 0.116938 1.32541 0.773275 -0.146423 1.32247 0.770839 0.0642551 1.329 -10.0763 15.7987 -4.16164 -10.4069 32.5412 0.090775 -0.0 0.0 -0.0 -0.638572 10.4865 0.147693 -0.595743 -3.28705 57.3547 2.35416 -49.3798 1.08241 -40.7644 -3.03283 4.11502 -3.07714 11.1682 -15.1488 -0.0 0.0 -0.0 8.19202 23.8711 -15.0594 -17.7607 26.1246 -67.1845 0.870402 23.3241 -0.179654 4.30688 -0.131711 0.534229 5.33401 -31.1209 -45.6706 0.0 0.0 0.0 -25.6106 15.8062 11.6871 -1.35058 0.0532497 0.20042 39.163 5.85982 -4.78507 -39.1099 0.0 0.0 -0.0 0.0 -0.0 26.5858 4.40707 -18.413 -0.286253 -0.0116813 -0.0423754 -2.44667 -6.03521 -0.36036 37.3385 -0.0 -0.0 0.0 0.0 0.0 
2494.52 695.328 -1487.78 -2.48963 58.4461 3.66598 0.751336 0.0387934 1.36787 0.752375 -0.048318 1.36757 0.751461 -0.3173 1.33113 0.749003 -0.103111 1.36453 -10.967 15.9991 -3.78257 -11.4363 32.7119 0.814168 -0.0 0.0 -0.0 -0.281012 10.9643 0.819226 -2.06564 -3.34791 57.9137 2.23937 -47.9603 0.996202 -40.7138 -3.0274 4.11145 -2.98375 11.0765 -14.5813 -0.0 0.0 -0.0 8.12916 23.3714 -14.9673 -17.6107 26.3197 -67.3039 0.959752 25.4275 -0.216536 5.36593 -0.157915 0.666974 5.42728 -30.3168 -46.4945 0.0 0.0 0.0 -27.2655 16.0069 11.7791 -3.05749 0.113757 0.455382 37.5441 5.93533 -4.63908 -39.1929 0.0 0.0 -0.0 0.0 -0.0 27.2044 4.90979 -17.4985 -5.87231 -0.196853 -0.879336 0.632755 -6.91787 0.0924879 38.1252 -0.0 -0.0 0.0 0.0 0.0 
2464.64 700.067 -1492.27 -0.22345 57.3709 0.768529 0.462939 0.136749 1.60697 0.464375 0.0342295 1.61241 0.465837 -0.292611 1.58602 0.462329 -0.0384911 1.61232 -11.051 15.9558 -3.29969 -11.5295 32.3216 1.29328 -0.0 0.0 -0.0 -0.529754 13.8776 0.772172 -4.55005 -4.62127 58.4215 2.21765 -47.6825 0.980107 -41.1881 -3.0784 4.14468 -2.87185 11.2364 -13.7594 -0.0 0.0 -0.0 8.2567 22.386 -15.3373 -16.7396 26.7763 -67.5044 0.978788 25.8665 -0.224776 4.30112 -0.131562 0.533508 5.33316 -31.0377 -45.6677 0.0 0.0 0.0 -27.5487 16.089 11.2851 -6.54744 0.213677 0.981575 33.7496 2.94022 -4.28042 -38.9566 0.0 0.0 -0.0 0.0 -0.0 24.6112 5.20512 -16.391 -9.26273 -0.269137 -1.39452 5.4385 -6.04427 0.784958 38.6001 -0.0 -0.0 0.0 0.0 0.0 
2438.93 706.036 -1493.91 0.985949 57.6928 -0.669892 0.325928 0.288487 1.65525 0.327433 0.18259 1.67025 0.333449 -0.162825 1.67229 0.329562 0.103287 1.67702 -9.30855 16.2768 -4.79973 -9.54134 33.8296 -0.658891 -0.0 0.0 -0.0 -0.194864 12.9731 1.20903 -7.64326 -3.69378 59.8928 2.06059 -45.583 0.86591 -41.3524 -3.09613 4.15609 -2.50108 8.6987 -12.6308 -0.0 0.0 -0.0 8.85969 23.034 -16.614 -16.6602 26.7177 -66.5759 0.966025 25.5726 -0.219237 5.34143 -0.157337 0.663898 5.18526 -30.5696 -44.4681 0.0 0.0 0.0 -28.2818 15.6787 11.6456 -6.138 0.203617 0.919548 34.4043 4.29055 -4.34142 -39.3426 0.0 0.0 -0.0 0.0 -0.0 21.4977 5.35437 -14.8332 -8.97141 -0.264125 -1.3501 -0.0709059 -6.04721 -0.0103872 39.2963 -0.0 -0.0 0.0 0.0 0.0 
2404.51 717.49 -1501.7 3.14789 57.6614 -3.31061 0.31026 0.312464 1.98442 0.312432 0.185583 2.00027 0.319887 -0.227887 1.9959 0.314339 0.0901229 2.00684 -9.56728 15.8907 -5.79482 -9.79742 33.7816 -1.65718 -0.0 0.0 -0.0 -0.259984 13.7151 1.19211 -9.7686 -1.91018 61.8638 1.81027 -41.8803 0.692776 -41.0961 -3.06849 4.13827 -2.61161 10.3629 -12.5086 -0.0 0.0 -0.0 9.80333 24.2471 -18.6024 -15.6557 26.823 -67.0762 0.938085 24.9239 -0.20732 5.67416 -0.16508 0.705695 5.12946 -30.2423 -44.022 0.0 0.0 0.0 -28.9772 15.7979 10.7458 -4.67494 0.164054 0.698509 36.4841 6.46672 -4.54105 -39.7269 0.0 0.0 -0.0 0.0 -0.0 17.265 6.56455 -13.0448 -10.6507 -0.289911 -1.60648 -1.12071 -8.10358 -0.164436 40.202 -0.0 -0.0 0.0 0.0 0.0 
2373.28 717.516 -1506.93 7.76723 58.7008 -8.08475 -0.0761636 0.183035 2.10132 -0.0737082 0.0489819 2.1087 -0.0707099 -0.398031 2.07139 -0.0766917 -0.0659736 2.10824 -12.3178 15.728 -5.16203 -12.9518 33.113 -0.145318 -0.0 0.0 -0.0 -0.661909 13.7814 0.543954 -12.5946 -2.23453 63.3912 1.62695 -38.8638 0.57399 -40.8577 -3.04283 4.12157 -2.48848 10.1886 -11.7908 -0.0 0.0 -0.0 9.97768 23.0634 -19.1033 -14.7882 27.0993 -67.237 0.905577 24.1605 -0.193816 5.29016 -0.156122 0.657461 4.97722 -31.3328 -42.794 0.0 0.0 0.0 -30.437 15.7093 11.125 -7.71627 0.23995 1.15901 37.345 4.32101 -4.62111 -38.5818 0.0 0.0 -0.0 0.0 -0.0 14.6414 7.11364 -11.1361 -16.7381 -0.320212 -2.53955 2.16864 -5.21436 0.316117 40.1018 -0.0 -0.0 0.0 0.0 0.0 
